<svg width="23" height="21" viewBox="0 0 23 21" fill="none" xmlns="http://www.w3.org/2000/svg">
<path d="M13.5347 13.151L12.5424 16.2912C12.1706 17.4666 10.3294 17.4666 9.95759 16.2912L8.96644 13.151C8.90369 12.9524 8.78603 12.7715 8.62456 12.6254C8.4631 12.4793 8.26316 12.3729 8.04361 12.3161L4.57292 11.4193C3.27379 11.0829 3.27379 9.41708 4.57292 9.08067L8.04361 8.18392C8.26316 8.12715 8.4631 8.02069 8.62456 7.87461C8.78603 7.72852 8.90369 7.54762 8.96644 7.34898L9.95759 4.20883C10.3294 3.03342 12.1706 3.03342 12.5424 4.20883L13.5336 7.34898C13.5963 7.54762 13.714 7.72852 13.8754 7.87461C14.0369 8.02069 14.2368 8.12715 14.4564 8.18392L17.9271 9.08067C19.2262 9.41708 19.2262 11.0829 17.9271 11.4193L14.4564 12.3161C14.2368 12.3729 14.0369 12.4793 13.8754 12.6254C13.714 12.7715 13.5963 12.9524 13.5336 13.151M19.7279 18.0685L19.3068 19.5965C19.2509 19.8012 18.9294 19.8012 18.8723 19.5965L18.4501 18.0685C18.4402 18.033 18.4199 18.0006 18.3913 17.9747C18.3627 17.9489 18.3269 17.9305 18.2877 17.9215L16.5988 17.5395C16.3726 17.4889 16.3726 17.1981 16.5988 17.1464L18.2877 16.7644C18.3269 16.7554 18.3627 16.737 18.3913 16.7112C18.4199 16.6853 18.4402 16.6529 18.4501 16.6174L18.8723 15.0894C18.9283 14.8847 19.2497 14.8847 19.3068 15.0894L19.7291 16.6174C19.739 16.6529 19.7593 16.6853 19.7879 16.7112C19.8165 16.737 19.8523 16.7554 19.8915 16.7644L21.5803 17.1464C21.8066 17.197 21.8066 17.4879 21.5803 17.5395L19.8915 17.9215C19.8523 17.9305 19.8165 17.9489 19.7879 17.9747C19.7593 18.0006 19.7378 18.033 19.7279 18.0685ZM4.04878 3.88255L3.62769 5.41058C3.57169 5.61526 3.24915 5.61526 3.19315 5.41058L2.77093 3.88255C2.76104 3.84708 2.74072 3.81469 2.71213 3.78883C2.68354 3.76296 2.64775 3.74458 2.60854 3.73563L0.919671 3.35362C0.693443 3.30296 0.693443 3.01113 0.919671 2.96047L2.60854 2.57846C2.64775 2.56951 2.68354 2.55113 2.71213 2.52526C2.74072 2.4994 2.76104 2.46701 2.77093 2.43154L3.19315 0.903512C3.24915 0.698829 3.57169 0.698829 3.62769 0.903512L4.0499 2.43154C4.05979 2.46701 4.08011 2.4994 4.1087 2.52526C4.13729 2.55113 4.17309 2.56951 4.2123 2.57846L5.90116 2.96047C6.12739 3.01113 6.12739 3.30296 5.90116 3.35362L4.2123 3.73563C4.17309 3.74458 4.13729 3.76296 4.1087 3.78883C4.08011 3.81469 4.05867 3.84708 4.04878 3.88255Z" stroke="#58CDFF" stroke-width="1.5" stroke-miterlimit="10" stroke-linecap="round" stroke-linejoin="round"/>
</svg>
